<mxfile host="65bd71144e" scale="2" border="0">
    <diagram name="Page-3" id="NTJyMuU4vmnQ3w8Ti_gr">
        <mxGraphModel dx="1079" dy="554" grid="1" gridSize="10" guides="1" tooltips="1" connect="1" arrows="1" fold="1" page="1" pageScale="1" pageWidth="850" pageHeight="1100" math="0" shadow="0">
            <root>
                <mxCell id="67KqLftsP8su1KZjNgFU-0"/>
                <mxCell id="67KqLftsP8su1KZjNgFU-1" parent="67KqLftsP8su1KZjNgFU-0"/>
                <mxCell id="67KqLftsP8su1KZjNgFU-2" value="&lt;font color=&quot;#990099&quot; face=&quot;Courier New&quot;&gt;&lt;b style=&quot;&quot;&gt;.Rmd&lt;/b&gt;&lt;/font&gt;" style="shape=note;whiteSpace=wrap;html=1;backgroundOutline=1;darkOpacity=0.05;strokeColor=#595959;fontSize=24;fillColor=#FFFFFF;" vertex="1" parent="67KqLftsP8su1KZjNgFU-1">
                    <mxGeometry x="40" y="230" width="80" height="100" as="geometry"/>
                </mxCell>
                <mxCell id="67KqLftsP8su1KZjNgFU-3" value="&lt;font color=&quot;#cc0066&quot; face=&quot;Courier New&quot;&gt;&lt;b style=&quot;&quot;&gt;.md&lt;/b&gt;&lt;/font&gt;" style="shape=note;whiteSpace=wrap;html=1;backgroundOutline=1;darkOpacity=0.05;strokeColor=#595959;fontSize=24;fillColor=#FFFFFF;" vertex="1" parent="67KqLftsP8su1KZjNgFU-1">
                    <mxGeometry x="360" y="230" width="80" height="100" as="geometry"/>
                </mxCell>
                <mxCell id="67KqLftsP8su1KZjNgFU-4" value="&lt;font color=&quot;#cc0000&quot;&gt;.PDF&lt;/font&gt;" style="shape=note;whiteSpace=wrap;html=1;backgroundOutline=1;darkOpacity=0.05;strokeColor=#595959;fontSize=24;fillColor=#FFFFFF;" vertex="1" parent="67KqLftsP8su1KZjNgFU-1">
                    <mxGeometry x="680" y="80" width="80" height="100" as="geometry"/>
                </mxCell>
                <mxCell id="67KqLftsP8su1KZjNgFU-5" value="&lt;font color=&quot;#6666ff&quot;&gt;.html&lt;/font&gt;" style="shape=note;whiteSpace=wrap;html=1;backgroundOutline=1;darkOpacity=0.05;strokeColor=#595959;fontSize=24;fillColor=#FFFFFF;" vertex="1" parent="67KqLftsP8su1KZjNgFU-1">
                    <mxGeometry x="680" y="210" width="80" height="100" as="geometry"/>
                </mxCell>
                <mxCell id="67KqLftsP8su1KZjNgFU-6" value="&lt;font color=&quot;#3333ff&quot;&gt;.docx&lt;/font&gt;" style="shape=note;whiteSpace=wrap;html=1;backgroundOutline=1;darkOpacity=0.05;strokeColor=#595959;fontSize=24;fillColor=#FFFFFF;" vertex="1" parent="67KqLftsP8su1KZjNgFU-1">
                    <mxGeometry x="750" y="270" width="80" height="100" as="geometry"/>
                </mxCell>
                <mxCell id="67KqLftsP8su1KZjNgFU-7" value="&lt;font color=&quot;#3333ff&quot;&gt;.odt&lt;/font&gt;" style="shape=note;whiteSpace=wrap;html=1;backgroundOutline=1;darkOpacity=0.05;strokeColor=#595959;fontSize=24;fillColor=#FFFFFF;" vertex="1" parent="67KqLftsP8su1KZjNgFU-1">
                    <mxGeometry x="660" y="320" width="80" height="100" as="geometry"/>
                </mxCell>
                <mxCell id="67KqLftsP8su1KZjNgFU-8" value="" style="endArrow=classic;html=1;fontFamily=Courier New;fontSize=24;fontColor=#990099;exitX=1;exitY=0.5;exitDx=0;exitDy=0;exitPerimeter=0;strokeColor=#6E6E6E;strokeWidth=3;" edge="1" parent="67KqLftsP8su1KZjNgFU-1" source="67KqLftsP8su1KZjNgFU-2" target="67KqLftsP8su1KZjNgFU-3">
                    <mxGeometry width="50" height="50" relative="1" as="geometry">
                        <mxPoint x="130" y="280" as="sourcePoint"/>
                        <mxPoint x="450" y="300" as="targetPoint"/>
                    </mxGeometry>
                </mxCell>
                <mxCell id="67KqLftsP8su1KZjNgFU-9" value="" style="endArrow=classic;html=1;fontFamily=Courier New;fontSize=24;fontColor=#990099;exitX=1;exitY=0.5;exitDx=0;exitDy=0;exitPerimeter=0;strokeColor=#6E6E6E;strokeWidth=3;startArrow=none;" edge="1" parent="67KqLftsP8su1KZjNgFU-1" source="67KqLftsP8su1KZjNgFU-12">
                    <mxGeometry width="50" height="50" relative="1" as="geometry">
                        <mxPoint x="440" y="280" as="sourcePoint"/>
                        <mxPoint x="680" y="280" as="targetPoint"/>
                    </mxGeometry>
                </mxCell>
                <mxCell id="67KqLftsP8su1KZjNgFU-10" value="" style="endArrow=none;html=1;fontFamily=Courier New;fontSize=24;fontColor=#990099;exitX=1;exitY=0.5;exitDx=0;exitDy=0;exitPerimeter=0;strokeColor=#6E6E6E;strokeWidth=3;" edge="1" parent="67KqLftsP8su1KZjNgFU-1" target="67KqLftsP8su1KZjNgFU-12">
                    <mxGeometry width="50" height="50" relative="1" as="geometry">
                        <mxPoint x="440" y="280" as="sourcePoint"/>
                        <mxPoint x="680" y="280" as="targetPoint"/>
                    </mxGeometry>
                </mxCell>
                <mxCell id="67KqLftsP8su1KZjNgFU-11" style="edgeStyle=none;html=1;entryX=0;entryY=0.5;entryDx=0;entryDy=0;entryPerimeter=0;strokeColor=#6E6E6E;strokeWidth=3;fontFamily=Courier New;fontSize=24;fontColor=#242424;" edge="1" parent="67KqLftsP8su1KZjNgFU-1" source="67KqLftsP8su1KZjNgFU-12" target="67KqLftsP8su1KZjNgFU-4">
                    <mxGeometry relative="1" as="geometry">
                        <Array as="points">
                            <mxPoint x="560" y="130"/>
                        </Array>
                    </mxGeometry>
                </mxCell>
                <mxCell id="67KqLftsP8su1KZjNgFU-12" value="&lt;font color=&quot;#0066cc&quot; style=&quot;font-size: 24px;&quot;&gt;pandoc&lt;/font&gt;" style="rounded=1;whiteSpace=wrap;html=1;strokeColor=#595959;fillColor=#99FFFF;" vertex="1" parent="67KqLftsP8su1KZjNgFU-1">
                    <mxGeometry x="500" y="260" width="120" height="40" as="geometry"/>
                </mxCell>
                <mxCell id="67KqLftsP8su1KZjNgFU-13" value="&lt;font color=&quot;#242424&quot; style=&quot;font-size: 24px;&quot;&gt;LaTeX&lt;/font&gt;" style="rounded=1;whiteSpace=wrap;html=1;strokeColor=#595959;fillColor=#E6E6E6;" vertex="1" parent="67KqLftsP8su1KZjNgFU-1">
                    <mxGeometry x="500" y="110" width="120" height="40" as="geometry"/>
                </mxCell>
                <mxCell id="67KqLftsP8su1KZjNgFU-14" value="&lt;font color=&quot;#3333ff&quot;&gt;.pptx&lt;/font&gt;" style="shape=note;whiteSpace=wrap;html=1;backgroundOutline=1;darkOpacity=0.05;strokeColor=#595959;fontSize=24;fillColor=#FFFFFF;" vertex="1" parent="67KqLftsP8su1KZjNgFU-1">
                    <mxGeometry x="730" y="380" width="80" height="100" as="geometry"/>
                </mxCell>
            </root>
        </mxGraphModel>
    </diagram>
    <diagram name="Page-2" id="q6RKs_OEcpQLUTdCW4_C">
        <mxGraphModel dx="1079" dy="554" grid="1" gridSize="10" guides="1" tooltips="1" connect="1" arrows="1" fold="1" page="1" pageScale="1" pageWidth="850" pageHeight="1100" math="0" shadow="0">
            <root>
                <mxCell id="cynQT4-1Bp1iuFXgxvOO-0"/>
                <mxCell id="cynQT4-1Bp1iuFXgxvOO-1" parent="cynQT4-1Bp1iuFXgxvOO-0"/>
                <mxCell id="cynQT4-1Bp1iuFXgxvOO-2" value="&lt;font color=&quot;#990099&quot; face=&quot;Courier New&quot;&gt;&lt;b style=&quot;&quot;&gt;.qmd&lt;/b&gt;&lt;/font&gt;" style="shape=note;whiteSpace=wrap;html=1;backgroundOutline=1;darkOpacity=0.05;strokeColor=#595959;fontSize=24;fillColor=#FFFFFF;" parent="cynQT4-1Bp1iuFXgxvOO-1" vertex="1">
                    <mxGeometry x="40" y="230" width="80" height="100" as="geometry"/>
                </mxCell>
                <mxCell id="cynQT4-1Bp1iuFXgxvOO-3" value="&lt;font color=&quot;#cc0066&quot; face=&quot;Courier New&quot;&gt;&lt;b style=&quot;&quot;&gt;.md&lt;/b&gt;&lt;/font&gt;" style="shape=note;whiteSpace=wrap;html=1;backgroundOutline=1;darkOpacity=0.05;strokeColor=#595959;fontSize=24;fillColor=#FFFFFF;" parent="cynQT4-1Bp1iuFXgxvOO-1" vertex="1">
                    <mxGeometry x="360" y="230" width="80" height="100" as="geometry"/>
                </mxCell>
                <mxCell id="cynQT4-1Bp1iuFXgxvOO-4" value="&lt;font color=&quot;#cc0000&quot;&gt;.PDF&lt;/font&gt;" style="shape=note;whiteSpace=wrap;html=1;backgroundOutline=1;darkOpacity=0.05;strokeColor=#595959;fontSize=24;fillColor=#FFFFFF;" parent="cynQT4-1Bp1iuFXgxvOO-1" vertex="1">
                    <mxGeometry x="680" y="80" width="80" height="100" as="geometry"/>
                </mxCell>
                <mxCell id="cynQT4-1Bp1iuFXgxvOO-5" value="&lt;font color=&quot;#6666ff&quot;&gt;.html&lt;/font&gt;" style="shape=note;whiteSpace=wrap;html=1;backgroundOutline=1;darkOpacity=0.05;strokeColor=#595959;fontSize=24;fillColor=#FFFFFF;" parent="cynQT4-1Bp1iuFXgxvOO-1" vertex="1">
                    <mxGeometry x="680" y="210" width="80" height="100" as="geometry"/>
                </mxCell>
                <mxCell id="cynQT4-1Bp1iuFXgxvOO-6" value="&lt;font color=&quot;#3333ff&quot;&gt;.docx&lt;/font&gt;" style="shape=note;whiteSpace=wrap;html=1;backgroundOutline=1;darkOpacity=0.05;strokeColor=#595959;fontSize=24;fillColor=#FFFFFF;" parent="cynQT4-1Bp1iuFXgxvOO-1" vertex="1">
                    <mxGeometry x="750" y="270" width="80" height="100" as="geometry"/>
                </mxCell>
                <mxCell id="cynQT4-1Bp1iuFXgxvOO-7" value="&lt;font color=&quot;#3333ff&quot;&gt;.odt&lt;/font&gt;" style="shape=note;whiteSpace=wrap;html=1;backgroundOutline=1;darkOpacity=0.05;strokeColor=#595959;fontSize=24;fillColor=#FFFFFF;" parent="cynQT4-1Bp1iuFXgxvOO-1" vertex="1">
                    <mxGeometry x="660" y="320" width="80" height="100" as="geometry"/>
                </mxCell>
                <mxCell id="cynQT4-1Bp1iuFXgxvOO-8" value="" style="endArrow=classic;html=1;fontFamily=Courier New;fontSize=24;fontColor=#990099;exitX=1;exitY=0.5;exitDx=0;exitDy=0;exitPerimeter=0;strokeColor=#6E6E6E;strokeWidth=3;" parent="cynQT4-1Bp1iuFXgxvOO-1" source="cynQT4-1Bp1iuFXgxvOO-2" target="cynQT4-1Bp1iuFXgxvOO-3" edge="1">
                    <mxGeometry width="50" height="50" relative="1" as="geometry">
                        <mxPoint x="130" y="280" as="sourcePoint"/>
                        <mxPoint x="450" y="300" as="targetPoint"/>
                    </mxGeometry>
                </mxCell>
                <mxCell id="cynQT4-1Bp1iuFXgxvOO-9" value="" style="endArrow=classic;html=1;fontFamily=Courier New;fontSize=24;fontColor=#990099;exitX=1;exitY=0.5;exitDx=0;exitDy=0;exitPerimeter=0;strokeColor=#6E6E6E;strokeWidth=3;startArrow=none;" parent="cynQT4-1Bp1iuFXgxvOO-1" source="cynQT4-1Bp1iuFXgxvOO-12" edge="1">
                    <mxGeometry width="50" height="50" relative="1" as="geometry">
                        <mxPoint x="440" y="280" as="sourcePoint"/>
                        <mxPoint x="680" y="280" as="targetPoint"/>
                    </mxGeometry>
                </mxCell>
                <mxCell id="cynQT4-1Bp1iuFXgxvOO-10" value="" style="endArrow=none;html=1;fontFamily=Courier New;fontSize=24;fontColor=#990099;exitX=1;exitY=0.5;exitDx=0;exitDy=0;exitPerimeter=0;strokeColor=#6E6E6E;strokeWidth=3;" parent="cynQT4-1Bp1iuFXgxvOO-1" target="cynQT4-1Bp1iuFXgxvOO-12" edge="1">
                    <mxGeometry width="50" height="50" relative="1" as="geometry">
                        <mxPoint x="440" y="280" as="sourcePoint"/>
                        <mxPoint x="680" y="280" as="targetPoint"/>
                    </mxGeometry>
                </mxCell>
                <mxCell id="cynQT4-1Bp1iuFXgxvOO-11" style="edgeStyle=none;html=1;entryX=0;entryY=0.5;entryDx=0;entryDy=0;entryPerimeter=0;strokeColor=#6E6E6E;strokeWidth=3;fontFamily=Courier New;fontSize=24;fontColor=#242424;" parent="cynQT4-1Bp1iuFXgxvOO-1" source="cynQT4-1Bp1iuFXgxvOO-12" target="cynQT4-1Bp1iuFXgxvOO-4" edge="1">
                    <mxGeometry relative="1" as="geometry">
                        <Array as="points">
                            <mxPoint x="560" y="130"/>
                        </Array>
                    </mxGeometry>
                </mxCell>
                <mxCell id="cynQT4-1Bp1iuFXgxvOO-12" value="&lt;font color=&quot;#0066cc&quot; style=&quot;font-size: 24px;&quot;&gt;pandoc&lt;/font&gt;" style="rounded=1;whiteSpace=wrap;html=1;strokeColor=#595959;fillColor=#99FFFF;" parent="cynQT4-1Bp1iuFXgxvOO-1" vertex="1">
                    <mxGeometry x="500" y="260" width="120" height="40" as="geometry"/>
                </mxCell>
                <mxCell id="cynQT4-1Bp1iuFXgxvOO-13" value="&lt;font color=&quot;#242424&quot; style=&quot;font-size: 24px;&quot;&gt;LaTeX&lt;/font&gt;" style="rounded=1;whiteSpace=wrap;html=1;strokeColor=#595959;fillColor=#E6E6E6;" parent="cynQT4-1Bp1iuFXgxvOO-1" vertex="1">
                    <mxGeometry x="500" y="110" width="120" height="40" as="geometry"/>
                </mxCell>
                <mxCell id="cynQT4-1Bp1iuFXgxvOO-14" value="&lt;font color=&quot;#3333ff&quot;&gt;.pptx&lt;/font&gt;" style="shape=note;whiteSpace=wrap;html=1;backgroundOutline=1;darkOpacity=0.05;strokeColor=#595959;fontSize=24;fillColor=#FFFFFF;" parent="cynQT4-1Bp1iuFXgxvOO-1" vertex="1">
                    <mxGeometry x="730" y="380" width="80" height="100" as="geometry"/>
                </mxCell>
                <mxCell id="mdEmpzueM83kbfIT3xro-0" value="&lt;font size=&quot;1&quot; color=&quot;#990099&quot; face=&quot;Courier New&quot;&gt;&lt;b style=&quot;font-size: 18px;&quot;&gt;.ipynb&lt;/b&gt;&lt;/font&gt;" style="shape=note;whiteSpace=wrap;html=1;backgroundOutline=1;darkOpacity=0.05;strokeColor=#595959;fontSize=24;fillColor=#FFFFFF;" parent="cynQT4-1Bp1iuFXgxvOO-1" vertex="1">
                    <mxGeometry x="60" y="120" width="80" height="100" as="geometry"/>
                </mxCell>
                <mxCell id="mdEmpzueM83kbfIT3xro-1" value="&lt;font color=&quot;#990099&quot; face=&quot;Courier New&quot;&gt;&lt;b style=&quot;&quot;&gt;.Rmd&lt;/b&gt;&lt;/font&gt;" style="shape=note;whiteSpace=wrap;html=1;backgroundOutline=1;darkOpacity=0.05;strokeColor=#595959;fontSize=24;fillColor=#FFFFFF;" parent="cynQT4-1Bp1iuFXgxvOO-1" vertex="1">
                    <mxGeometry x="130" y="320" width="80" height="100" as="geometry"/>
                </mxCell>
            </root>
        </mxGraphModel>
    </diagram>
    <diagram id="-XD-ml8vPs4dv6iC7Qif" name="Page-1">
        <mxGraphModel dx="977" dy="489" grid="1" gridSize="10" guides="1" tooltips="1" connect="1" arrows="1" fold="1" page="1" pageScale="1" pageWidth="850" pageHeight="1100" math="0" shadow="0">
            <root>
                <mxCell id="0"/>
                <mxCell id="1" parent="0"/>
                <mxCell id="4" value="&lt;font color=&quot;#990099&quot; face=&quot;Courier New&quot;&gt;&lt;b style=&quot;&quot;&gt;.qmd&lt;/b&gt;&lt;/font&gt;" style="shape=note;whiteSpace=wrap;html=1;backgroundOutline=1;darkOpacity=0.05;strokeColor=#595959;fontSize=24;fillColor=#FFFFFF;" parent="1" vertex="1">
                    <mxGeometry x="40" y="230" width="80" height="100" as="geometry"/>
                </mxCell>
                <mxCell id="5" value="&lt;font color=&quot;#cc0066&quot; face=&quot;Courier New&quot;&gt;&lt;b style=&quot;&quot;&gt;.md&lt;/b&gt;&lt;/font&gt;" style="shape=note;whiteSpace=wrap;html=1;backgroundOutline=1;darkOpacity=0.05;strokeColor=#595959;fontSize=24;fillColor=#FFFFFF;" parent="1" vertex="1">
                    <mxGeometry x="360" y="230" width="80" height="100" as="geometry"/>
                </mxCell>
                <mxCell id="6" value="&lt;font color=&quot;#cc0000&quot;&gt;.PDF&lt;/font&gt;" style="shape=note;whiteSpace=wrap;html=1;backgroundOutline=1;darkOpacity=0.05;strokeColor=#595959;fontSize=24;fillColor=#FFFFFF;" parent="1" vertex="1">
                    <mxGeometry x="680" y="80" width="80" height="100" as="geometry"/>
                </mxCell>
                <mxCell id="7" value="&lt;font color=&quot;#6666ff&quot;&gt;.html&lt;/font&gt;" style="shape=note;whiteSpace=wrap;html=1;backgroundOutline=1;darkOpacity=0.05;strokeColor=#595959;fontSize=24;fillColor=#FFFFFF;" parent="1" vertex="1">
                    <mxGeometry x="680" y="210" width="80" height="100" as="geometry"/>
                </mxCell>
                <mxCell id="8" value="&lt;font color=&quot;#3333ff&quot;&gt;.docx&lt;/font&gt;" style="shape=note;whiteSpace=wrap;html=1;backgroundOutline=1;darkOpacity=0.05;strokeColor=#595959;fontSize=24;fillColor=#FFFFFF;" parent="1" vertex="1">
                    <mxGeometry x="750" y="270" width="80" height="100" as="geometry"/>
                </mxCell>
                <mxCell id="9" value="&lt;font color=&quot;#3333ff&quot;&gt;.odt&lt;/font&gt;" style="shape=note;whiteSpace=wrap;html=1;backgroundOutline=1;darkOpacity=0.05;strokeColor=#595959;fontSize=24;fillColor=#FFFFFF;" parent="1" vertex="1">
                    <mxGeometry x="660" y="320" width="80" height="100" as="geometry"/>
                </mxCell>
                <mxCell id="12" value="" style="endArrow=classic;html=1;fontFamily=Courier New;fontSize=24;fontColor=#990099;exitX=1;exitY=0.5;exitDx=0;exitDy=0;exitPerimeter=0;strokeColor=#6E6E6E;strokeWidth=3;" parent="1" source="4" target="5" edge="1">
                    <mxGeometry width="50" height="50" relative="1" as="geometry">
                        <mxPoint x="130" y="280" as="sourcePoint"/>
                        <mxPoint x="450" y="300" as="targetPoint"/>
                    </mxGeometry>
                </mxCell>
                <mxCell id="14" value="" style="endArrow=classic;html=1;fontFamily=Courier New;fontSize=24;fontColor=#990099;exitX=1;exitY=0.5;exitDx=0;exitDy=0;exitPerimeter=0;strokeColor=#6E6E6E;strokeWidth=3;startArrow=none;" parent="1" source="3" edge="1">
                    <mxGeometry width="50" height="50" relative="1" as="geometry">
                        <mxPoint x="440" y="280" as="sourcePoint"/>
                        <mxPoint x="680" y="280" as="targetPoint"/>
                    </mxGeometry>
                </mxCell>
                <mxCell id="15" value="" style="endArrow=none;html=1;fontFamily=Courier New;fontSize=24;fontColor=#990099;exitX=1;exitY=0.5;exitDx=0;exitDy=0;exitPerimeter=0;strokeColor=#6E6E6E;strokeWidth=3;" parent="1" target="3" edge="1">
                    <mxGeometry width="50" height="50" relative="1" as="geometry">
                        <mxPoint x="440" y="280" as="sourcePoint"/>
                        <mxPoint x="680" y="280" as="targetPoint"/>
                    </mxGeometry>
                </mxCell>
                <mxCell id="16" style="edgeStyle=none;html=1;entryX=0;entryY=0.5;entryDx=0;entryDy=0;entryPerimeter=0;strokeColor=#6E6E6E;strokeWidth=3;fontFamily=Courier New;fontSize=24;fontColor=#242424;" parent="1" source="3" target="6" edge="1">
                    <mxGeometry relative="1" as="geometry">
                        <Array as="points">
                            <mxPoint x="560" y="130"/>
                        </Array>
                    </mxGeometry>
                </mxCell>
                <mxCell id="3" value="&lt;font color=&quot;#0066cc&quot; style=&quot;font-size: 24px;&quot;&gt;pandoc&lt;/font&gt;" style="rounded=1;whiteSpace=wrap;html=1;strokeColor=#595959;fillColor=#99FFFF;" parent="1" vertex="1">
                    <mxGeometry x="500" y="260" width="120" height="40" as="geometry"/>
                </mxCell>
                <mxCell id="11" value="&lt;font color=&quot;#242424&quot; style=&quot;font-size: 24px;&quot;&gt;LaTeX&lt;/font&gt;" style="rounded=1;whiteSpace=wrap;html=1;strokeColor=#595959;fillColor=#E6E6E6;" parent="1" vertex="1">
                    <mxGeometry x="500" y="110" width="120" height="40" as="geometry"/>
                </mxCell>
                <mxCell id="17" value="&lt;font color=&quot;#3333ff&quot;&gt;.pptx&lt;/font&gt;" style="shape=note;whiteSpace=wrap;html=1;backgroundOutline=1;darkOpacity=0.05;strokeColor=#595959;fontSize=24;fillColor=#FFFFFF;" parent="1" vertex="1">
                    <mxGeometry x="730" y="380" width="80" height="100" as="geometry"/>
                </mxCell>
            </root>
        </mxGraphModel>
    </diagram>
</mxfile>